<?xml version="1.0" standalone="no"?>
<!DOCTYPE svg PUBLIC "-//W3C//DTD SVG 20010904//EN"
 "http://www.w3.org/TR/2001/REC-SVG-20010904/DTD/svg10.dtd">
<svg version="1.0" xmlns="http://www.w3.org/2000/svg"
 width="1920.000000pt" height="1080.000000pt" viewBox="0 0 1920.000000 1080.000000"
 preserveAspectRatio="xMidYMid meet">
<metadata>
Created by potrace 1.16, written by Peter Selinger 2001-2019
</metadata>
<g transform="translate(0.000000,1080.000000) scale(0.100000,-0.100000)"
fill="#000000" stroke="none">
<path d="M0 5400 l0 -5400 9600 0 9600 0 0 5400 0 5400 -9600 0 -9600 0 0
-5400z m9782 3378 c89 -38 156 -138 165 -247 4 -49 1 -64 -30 -125 l-35 -68
32 8 c17 5 63 9 101 9 60 0 81 -5 137 -33 181 -89 213 -313 64 -450 -92 -85
-204 -105 -319 -58 -32 13 -57 20 -55 16 2 -5 43 -59 91 -120 140 -175 262
-258 395 -268 88 -6 216 20 293 58 62 32 164 121 191 168 l17 29 -60 7 c-165
17 -269 126 -269 281 0 94 13 134 60 188 57 65 138 102 215 100 33 -1 77 -8
97 -17 21 -9 47 -16 60 -16 12 0 33 -10 46 -22 l25 -23 -8 30 c-4 17 -7 37 -5
45 1 8 3 42 4 75 4 124 3 121 63 185 76 82 153 121 251 128 39 2 72 2 72 -2 0
-14 -102 -241 -110 -246 -12 -8 -50 -92 -50 -112 0 -20 -59 -146 -71 -154 -5
-3 -9 -14 -9 -25 0 -22 -42 -122 -236 -567 -69 -156 -123 -286 -121 -289 2 -2
39 10 82 28 43 17 128 42 189 57 99 23 131 26 303 27 105 0 194 -3 197 -6 3
-3 -10 -55 -30 -115 -52 -160 -149 -350 -244 -476 -44 -58 -80 -109 -80 -111
0 -3 51 -38 113 -80 185 -123 326 -269 437 -453 84 -138 155 -325 179 -469 10
-60 31 -385 26 -393 -1 -1 -44 57 -96 129 -99 138 -171 214 -236 244 -48 23
-167 64 -172 59 -2 -2 27 -41 65 -86 194 -232 274 -367 343 -573 111 -333 87
-674 -70 -988 -59 -118 -160 -280 -170 -270 -4 4 -27 62 -49 128 -73 212 -135
304 -260 388 -30 20 -58 37 -62 37 -3 0 20 -66 53 -147 93 -231 104 -279 104
-468 0 -203 -20 -292 -95 -433 -58 -106 -123 -194 -224 -299 -127 -133 -276
-238 -494 -347 l-74 -37 6 28 c25 127 30 177 30 313 0 139 -2 161 -24 215 -34
87 -97 188 -148 237 l-44 43 5 -30 c49 -269 17 -604 -77 -793 -74 -151 -196
-296 -319 -380 -71 -49 -246 -138 -317 -161 -123 -40 -253 -62 -393 -68 l-139
-6 37 58 c48 74 78 143 99 227 43 177 59 533 32 713 -22 141 -69 356 -76 348
-16 -18 -90 -214 -109 -288 -37 -148 -59 -348 -62 -570 -1 -71 -5 -140 -8
-153 l-6 -23 -31 23 c-93 70 -281 238 -357 318 -190 202 -307 416 -359 655 -7
35 -12 120 -12 205 1 135 4 154 37 273 20 70 52 161 71 202 19 41 32 75 30 75
-13 0 -187 -155 -262 -234 -46 -48 -85 -86 -87 -84 -1 2 -21 53 -43 113 -65
177 -75 227 -76 355 0 244 65 399 247 587 90 93 95 83 -50 103 -113 15 -193
44 -279 102 -165 110 -234 241 -234 443 l0 84 128 -44 c191 -65 347 -98 467
-99 89 0 110 4 185 32 83 32 250 121 250 134 0 10 -99 54 -198 87 -193 66
-343 52 -856 -75 -253 -63 -343 -77 -486 -77 -99 -1 -143 4 -210 22 -210 56
-392 177 -506 336 -56 78 -142 236 -165 301 -11 33 -27 66 -34 74 -22 25 -87
162 -73 154 7 -4 60 -39 118 -78 218 -147 306 -193 470 -246 173 -57 309 -81
500 -87 149 -5 185 -2 375 25 354 52 400 56 506 44 286 -34 448 -125 641 -362
l36 -44 76 67 c87 79 97 99 66 132 -32 34 -84 56 -260 110 -231 70 -337 125
-495 259 -116 99 -168 121 -280 120 -189 -1 -433 -98 -697 -276 -31 -21 -59
-38 -61 -38 -9 0 64 288 104 414 100 314 266 532 482 631 115 53 207 68 361
62 137 -6 219 -23 336 -70 35 -15 65 -25 65 -24 15 25 55 79 78 103 22 25 27
37 22 55 -7 21 -94 222 -380 874 -185 422 -255 585 -255 594 0 30 140 13 211
-26 66 -35 143 -113 173 -172 30 -59 35 -141 11 -198 -8 -19 -15 -37 -15 -38
0 -2 28 11 62 28 54 28 71 32 142 32 69 0 90 -4 138 -28 67 -33 130 -99 146
-155 20 -67 15 -170 -12 -227 -42 -91 -137 -153 -251 -164 l-60 -6 86 -87 c92
-94 142 -124 259 -154 75 -19 198 -15 268 10 63 23 139 76 214 153 61 61 168
193 168 207 0 3 -19 -2 -42 -11 -25 -9 -74 -16 -118 -16 -126 -1 -220 56 -277
168 -104 203 120 445 355 382 28 -8 52 -12 52 -10 0 3 -10 18 -21 35 -49 68
-62 183 -30 254 25 56 85 121 135 146 81 41 189 44 278 6z"/>
<path d="M11165 7205 c-244 -44 -459 -151 -644 -319 -56 -51 -98 -83 -105 -78
-32 20 -126 95 -125 101 0 3 68 60 150 126 l150 120 -891 3 -891 2 -30 -22
c-38 -28 -179 -189 -174 -198 2 -4 36 -13 75 -20 64 -12 85 -11 223 9 214 31
315 18 476 -63 49 -25 111 -72 111 -84 0 -9 -115 -102 -125 -102 -5 0 -23 12
-42 26 -19 14 -36 24 -37 23 -2 -2 -23 -38 -46 -79 -62 -106 -119 -164 -209
-208 -74 -36 -77 -37 -191 -37 -112 0 -118 1 -183 34 -126 64 -208 178 -237
330 l-16 85 -65 27 c-163 69 -340 94 -463 65 -159 -37 -265 -117 -369 -276
-50 -77 -153 -287 -145 -296 2 -2 49 14 104 35 242 92 442 109 599 50 78 -29
96 -41 180 -118 133 -122 234 -177 447 -241 195 -59 261 -87 313 -132 61 -54
89 -108 89 -179 1 -46 -4 -61 -27 -90 -49 -58 -188 -177 -287 -244 -329 -221
-584 -272 -901 -180 -44 12 -79 20 -79 18 0 -3 10 -23 22 -44 56 -101 234
-182 428 -195 98 -7 402 15 699 52 112 13 205 23 207 21 2 -2 -128 -55 -289
-119 -387 -154 -456 -194 -597 -346 -122 -130 -170 -258 -170 -452 0 -124 7
-153 31 -124 23 28 165 131 235 170 35 20 99 49 142 66 81 31 373 110 380 103
2 -2 -40 -52 -94 -110 -222 -239 -332 -454 -364 -713 -31 -245 61 -522 244
-742 61 -72 158 -171 163 -166 3 3 11 56 18 119 36 308 96 499 213 675 30 46
220 227 229 219 7 -8 85 -335 107 -452 47 -249 56 -327 56 -511 0 -200 -11
-317 -41 -446 -11 -48 -20 -91 -19 -95 5 -34 315 85 435 167 112 77 236 234
285 362 58 149 64 188 64 383 1 201 -16 326 -65 502 -16 58 -28 109 -27 114 4
11 161 -42 233 -78 147 -75 265 -197 336 -348 47 -99 68 -183 76 -291 3 -46 9
-84 13 -84 4 0 51 37 106 83 171 143 284 306 340 492 24 81 27 106 28 240 0
136 -3 159 -28 239 -48 157 -122 301 -259 505 l-50 74 119 -6 c69 -3 152 -14
198 -26 162 -43 331 -163 423 -302 l27 -42 14 34 c73 177 100 415 67 602 -57
327 -230 595 -582 901 -57 49 -103 92 -103 95 0 8 171 43 248 50 118 12 260
-12 386 -64 17 -7 18 -5 12 21 -53 209 -260 473 -499 633 -59 39 -114 74 -122
77 -8 3 -51 -19 -97 -49 -46 -30 -114 -68 -153 -85 -69 -30 -254 -87 -259 -80
-5 7 -45 152 -42 155 1 1 41 14 89 28 284 82 520 300 674 620 18 38 33 75 33
82 0 16 -60 16 -155 -2z m-62 -182 c-51 -82 -143 -189 -195 -228 -66 -50 -206
-122 -253 -131 -28 -5 -32 -2 -57 48 -16 29 -28 58 -28 63 1 12 115 92 210
149 74 44 133 69 240 101 101 31 104 31 83 -2z m-422 -930 c124 -130 201 -254
258 -415 43 -125 55 -228 41 -357 -21 -191 -70 -338 -161 -478 -41 -63 -201
-261 -211 -262 -5 -1 -8 82 -8 184 0 249 -20 344 -97 468 -31 50 -46 53 -37 8
10 -48 -14 -245 -40 -326 -14 -44 -42 -109 -63 -144 -48 -81 -167 -208 -240
-257 -66 -44 -189 -97 -276 -120 -65 -17 -217 -44 -217 -38 0 2 31 48 69 102
92 130 145 230 170 322 21 76 27 130 14 130 -5 0 -24 -28 -43 -62 -46 -81
-141 -164 -243 -215 -113 -56 -180 -72 -337 -80 l-135 -6 100 95 c160 153 202
247 170 383 -8 36 -15 68 -15 70 0 6 137 75 149 75 15 0 49 -92 55 -150 4 -32
1 -87 -7 -132 -8 -43 -10 -78 -5 -78 19 0 99 92 127 147 44 89 60 155 74 312
l12 143 100 -104 c140 -145 175 -224 175 -398 0 -62 -7 -121 -19 -170 -11 -41
-18 -76 -16 -78 2 -3 27 14 54 37 160 134 231 339 202 581 -11 84 -57 292 -77
344 -6 16 -4 18 12 12 232 -86 272 -110 356 -210 77 -91 111 -156 173 -321 18
-50 55 146 55 296 0 150 -75 346 -195 511 l-57 77 29 86 c15 46 31 85 34 85 3
0 35 -30 70 -67z m-1454 -20 c22 -12 81 -51 129 -88 49 -36 121 -82 161 -101
65 -33 78 -36 137 -32 35 2 63 1 60 -3 -11 -19 -124 -51 -184 -52 -88 -2 -131
20 -261 136 -120 107 -140 120 -198 138 -35 11 -40 14 -25 21 35 14 137 3 181
-19z"/>
<path d="M9000 6738 c-33 -69 -91 -101 -167 -96 -59 5 -119 44 -136 89 -8 21
-19 28 -50 33 -22 4 -42 4 -46 0 -3 -3 10 -36 30 -72 48 -91 102 -125 205
-130 115 -6 168 25 238 142 47 78 46 86 -6 86 -42 0 -44 -2 -68 -52z"/>
<path d="M6550 5910 c16 -29 136 -123 211 -164 204 -112 369 -117 728 -22 257
68 410 102 529 118 50 7 92 15 92 19 0 8 -91 19 -167 19 -34 0 -109 -9 -165
-20 -244 -48 -539 -63 -756 -39 -124 13 -308 52 -402 84 -88 30 -83 30 -70 5z"/>
</g>
</svg>
